<svg width="24" height="24" viewBox="0 0 24 24" fill="none" xmlns="http://www.w3.org/2000/svg">
<g clip-path="url(#clip0_56_2912)">
<rect width="24" height="24" fill="url(#paint0_radial_56_2912)"/>
<mask id="mask0_56_2912" style="mask-type:luminance" maskUnits="userSpaceOnUse" x="0" y="0" width="24" height="24">
<rect x="7.62939e-06" width="24" height="24" fill="white"/>
</mask>
<g mask="url(#mask0_56_2912)">
<path d="M25.9781 21.6417L16.1449 14.4728L14.7757 6.52598L7.11109 4.56006L3.79689 13.9771L9.03097 16.0692L17.1649 26.068L25.9781 21.6417Z" fill="url(#paint1_linear_56_2912)"/>
<mask id="mask1_56_2912" style="mask-type:luminance" maskUnits="userSpaceOnUse" x="3" y="4" width="23" height="23">
<path fill-rule="evenodd" clip-rule="evenodd" d="M25.9781 21.6417L16.1449 14.4728L14.7757 6.52598L7.11109 4.56006L3.79689 13.9771L9.03097 16.0692L17.1649 26.068L25.9781 21.6417Z" fill="white"/>
</mask>
<g mask="url(#mask1_56_2912)">
<path opacity="0.34" d="M11.8793 13.6598C9.89046 15.4034 13.4392 19.9703 7.63761 19.5454C1.83605 19.1206 8.3252 12.3869 8.3252 12.3869L10.7986 12.0222" fill="url(#paint2_linear_56_2912)"/>
</g>
<path d="M11.0487 9.46698C13.5772 24.1547 0.28813 17.1209 4.80125 11.1232C9.89219 14.3665 9.78302 9.1425 9.78302 9.1425C9.78302 9.1425 7.45716 7.49682 8.89967 5.76839C8.89967 5.76839 7.1591 4.42381 6.72275 5.66363C5.10379 2.64653 7.48873 0.360195 12.4133 3.17215C17.3379 5.98411 16.7666 15.0303 16.7666 15.0303C16.7666 15.0303 12.7048 18.9847 11.0487 9.46698Z" fill="url(#paint3_linear_56_2912)"/>
<path d="M11.1999 10.4578C14.9758 8.37573 15.176 12.7831 11.0961 15.3298L11.1999 10.4578Z" fill="url(#paint4_linear_56_2912)"/>
<path d="M17.0973 15.2591C15.7647 15.5492 13.6767 22.6906 13.6767 22.6906L18.9839 33.479C18.9839 33.479 22.6487 48.6346 24.7367 48.8956C36.2441 52.7345 45.8967 35.9305 45.8967 35.9305C45.8967 35.9305 26.3193 14.8243 17.0973 15.2591Z" fill="url(#paint5_linear_56_2912)"/>
<path d="M10.7214 52.7112C6.86493 51.1099 6.86493 47.9993 6.86493 47.9993L10.7558 36.9964L14.6308 20.8513L25.9781 21.6417L19.3306 38.9675C19.2258 39.5487 19.0047 40.1026 18.6804 40.5962L10.7214 52.7112Z" fill="url(#paint6_linear_56_2912)"/>
</g>
</g>
<defs>
<radialGradient id="paint0_radial_56_2912" cx="0" cy="0" r="1" gradientUnits="userSpaceOnUse" gradientTransform="translate(12 12) scale(12)">
<stop offset="0.0048" stop-color="#DA29F3"/>
<stop offset="0.9986" stop-color="#F731C0"/>
</radialGradient>
<linearGradient id="paint1_linear_56_2912" x1="29.6601" y1="7.98173" x2="7.09577" y2="1.82775" gradientUnits="userSpaceOnUse">
<stop offset="0.1023" stop-color="#FCADBA"/>
<stop offset="0.8855" stop-color="#FBDAD9"/>
</linearGradient>
<linearGradient id="paint2_linear_56_2912" x1="12.1693" y1="13.1377" x2="6.44425" y2="11.9979" gradientUnits="userSpaceOnUse">
<stop offset="0.1011" stop-color="#FF7638"/>
<stop offset="0.8855" stop-color="#FF3929"/>
</linearGradient>
<linearGradient id="paint3_linear_56_2912" x1="18.7561" y1="4.32673" x2="5.9199" y2="2.25135" gradientUnits="userSpaceOnUse">
<stop offset="0.1023" stop-color="#915758"/>
<stop offset="0.8855" stop-color="#2C090B"/>
</linearGradient>
<linearGradient id="paint4_linear_56_2912" x1="13.9241" y1="10.2894" x2="10.9201" y2="10.0532" gradientUnits="userSpaceOnUse">
<stop offset="0.1023" stop-color="#FCADBA"/>
<stop offset="0.8855" stop-color="#FBDAD9"/>
</linearGradient>
<linearGradient id="paint5_linear_56_2912" x1="21.8177" y1="66.8469" x2="41.0372" y2="41.9893" gradientUnits="userSpaceOnUse">
<stop offset="0.0035" stop-color="#4AAAFD"/>
<stop offset="1" stop-color="#00DED8"/>
</linearGradient>
<linearGradient id="paint6_linear_56_2912" x1="9.87577" y1="67.0271" x2="34.4861" y2="54.1105" gradientUnits="userSpaceOnUse">
<stop offset="0.0035" stop-color="#4AAAFD"/>
<stop offset="1" stop-color="#00DED8"/>
</linearGradient>
<clipPath id="clip0_56_2912">
<rect width="24" height="24" rx="12" fill="white"/>
</clipPath>
</defs>
</svg>
