<svg width="24" height="24" viewBox="0 0 24 24" fill="none" xmlns="http://www.w3.org/2000/svg">
<g clip-path="url(#clip0_56_2907)">
<rect width="24" height="24" fill="url(#paint0_radial_56_2907)"/>
<mask id="mask0_56_2907" style="mask-type:luminance" maskUnits="userSpaceOnUse" x="0" y="0" width="24" height="25">
<rect x="3.05176e-05" y="0.000244141" width="24" height="24" fill="white"/>
</mask>
<g mask="url(#mask0_56_2907)">
<path d="M-4.78851 23.5278V52.1924C-4.73137 54.9342 -2.4636 57.1113 0.278271 57.0565H2.44395V30.4711C2.36243 26.5574 -0.874686 23.4498 -4.78851 23.5281L-4.78851 23.5278Z" fill="url(#paint1_linear_56_2907)"/>
<path d="M14.9717 10.5766C14.0044 11.6821 13.3587 18.6522 13.3587 18.6522L7.76568 15.1392L11.0523 5.96338L14.9717 10.5766Z" fill="url(#paint2_linear_56_2907)"/>
<mask id="mask1_56_2907" style="mask-type:luminance" maskUnits="userSpaceOnUse" x="7" y="5" width="8" height="14">
<path fill-rule="evenodd" clip-rule="evenodd" d="M14.9717 10.5766C14.0044 11.6821 13.3587 18.6522 13.3587 18.6522L7.76568 15.1392L11.0523 5.96338L14.9717 10.5766Z" fill="white"/>
</mask>
<g mask="url(#mask1_56_2907)">
<path d="M15.3156 15.0368L12.6095 11.2742L15.7348 11.5211L15.3156 15.0368Z" fill="url(#paint3_linear_56_2907)"/>
</g>
<path d="M16.4164 11.27C18.4616 11.3805 19.5673 9.25355 19.042 8.00924C18.5167 6.76494 17.439 4.85791 18.2958 3.80769C19.1525 2.75746 13.9633 2.53247 13.9633 2.53247L12.9616 4.22222L13.7908 8.61684L16.4164 11.27Z" fill="url(#paint4_linear_56_2907)"/>
<path d="M17.5403 12.182C16.2819 13.7288 11.331 11.7674 11.331 11.7674L10.7229 5.38298L16.4441 3.80762C16.4441 3.80762 20.0093 9.14717 17.5403 12.182Z" fill="url(#paint5_linear_56_2907)"/>
<ellipse cx="11.0304" cy="7.69778" rx="0.818774" ry="1.05716" fill="#3D74D6"/>
<path d="M32.511 20.1541C31.1222 21.7164 28.9999 23.9375 28.9295 25.6624C28.9247 25.7757 28.9281 25.8891 28.9394 26.0019C29.1248 27.8155 24.2757 34.4777 24.2757 34.4777L15.948 22.5598L8.28651 24.2624C8.28651 24.2624 16.0637 33.5507 21.2939 39.6697C22.2385 40.7753 23.7157 41.2699 25.1356 40.9561C26.5554 40.6423 27.6865 39.5711 28.0772 38.1704C29.4839 33.1274 31.0488 27.0999 31.0488 27.0999C31.0488 27.0999 33.4916 23.226 33.5656 23.041C33.6396 22.8559 33.4916 20.4378 33.2202 20.4871C32.9488 20.5365 33.0722 21.104 33.0722 21.104C33.0722 21.104 32.3072 22.7449 32.0358 22.7819C31.7644 22.8189 32.5786 20.9683 32.6527 20.7585C32.7267 20.5488 32.511 20.1541 32.511 20.1541Z" fill="url(#paint6_linear_56_2907)"/>
<path d="M16.7092 2.81954C17.0408 5.74929 12.9616 13.3704 12.9616 13.3704H5.02948C5.02948 13.3704 5.02948 0.454342 16.7092 2.81954Z" fill="url(#paint7_linear_56_2907)"/>
<path d="M7.57094 14.6145C8.31115 15.3054 13.2054 17.271 13.4435 17.5263C14.1344 18.2665 19.2791 25.0027 19.5752 26.9274C19.8713 28.852 18.5867 39.2338 18.5867 39.2338L6.01124 38.5707C6.01124 38.5707 4.80736 28.778 4.21513 28.1118C3.9713 27.8374 4.82631 26.643 4.23982 25.854L0.711334 24.2748C0.711334 24.2748 3.17884 20.4132 4.36323 18.7107C5.54763 17.0082 7.57094 14.6145 7.57094 14.6145Z" fill="url(#paint8_linear_56_2907)"/>
<mask id="mask2_56_2907" style="mask-type:luminance" maskUnits="userSpaceOnUse" x="0" y="14" width="20" height="26">
<path fill-rule="evenodd" clip-rule="evenodd" d="M7.57094 14.6145C8.31115 15.3054 13.2054 17.271 13.4435 17.5263C14.1344 18.2665 19.2791 25.0027 19.5752 26.9274C19.8713 28.852 18.5867 39.2338 18.5867 39.2338L6.01124 38.5707C6.01124 38.5707 4.80736 28.778 4.21513 28.1118C3.9713 27.8374 4.82631 26.643 4.23982 25.854L0.711334 24.2748C0.711334 24.2748 3.17884 20.4132 4.36323 18.7107C5.54763 17.0082 7.57094 14.6145 7.57094 14.6145Z" fill="white"/>
</mask>
<g mask="url(#mask2_56_2907)">
<path d="M4.21519 28.1115L8.28652 27.5933L10.1655 22.5486C10.1655 22.5486 5.97357 39.4784 18.5868 39.2335C31.2 38.9886 -0.33303 41.0506 -0.33303 41.0506L-0.454704 30.8755L5.85112 28.2735" fill="url(#paint9_linear_56_2907)"/>
</g>
</g>
</g>
<defs>
<radialGradient id="paint0_radial_56_2907" cx="0" cy="0" r="1" gradientUnits="userSpaceOnUse" gradientTransform="translate(12.0001 12) scale(12 12)">
<stop offset="0.1023" stop-color="white"/>
<stop offset="0.8855" stop-color="#E3EBFD"/>
</radialGradient>
<linearGradient id="paint1_linear_56_2907" x1="-3.27683" y1="15.4467" x2="-19.1822" y2="28.7666" gradientUnits="userSpaceOnUse">
<stop offset="0.0048" stop-color="#B68BFF"/>
<stop offset="0.9986" stop-color="#8948FF"/>
</linearGradient>
<linearGradient id="paint2_linear_56_2907" x1="7.76568" y1="18.6523" x2="14.9717" y2="18.6523" gradientUnits="userSpaceOnUse">
<stop offset="0.1023" stop-color="#FFAFBC"/>
<stop offset="0.8855" stop-color="#FFDDDC"/>
</linearGradient>
<linearGradient id="paint3_linear_56_2907" x1="12.6097" y1="15.0367" x2="15.7348" y2="15.0367" gradientUnits="userSpaceOnUse">
<stop offset="0.1023" stop-color="#FFB4B9"/>
<stop offset="0.8855" stop-color="#FA898C"/>
</linearGradient>
<linearGradient id="paint4_linear_56_2907" x1="12.9616" y1="11.2741" x2="19.1719" y2="11.2741" gradientUnits="userSpaceOnUse">
<stop offset="0.1023" stop-color="#915758"/>
<stop offset="0.8855" stop-color="#2C090B"/>
</linearGradient>
<linearGradient id="paint5_linear_56_2907" x1="10.7229" y1="12.7762" x2="18.4111" y2="12.7762" gradientUnits="userSpaceOnUse">
<stop offset="0.1023" stop-color="#FFAFBC"/>
<stop offset="0.8855" stop-color="#FFDDDC"/>
</linearGradient>
<linearGradient id="paint6_linear_56_2907" x1="8.28651" y1="41.05" x2="33.5848" y2="41.05" gradientUnits="userSpaceOnUse">
<stop offset="0.1023" stop-color="#FFAFBC"/>
<stop offset="0.8855" stop-color="#FFDDDC"/>
</linearGradient>
<linearGradient id="paint7_linear_56_2907" x1="5.02948" y1="13.3704" x2="16.7283" y2="13.3704" gradientUnits="userSpaceOnUse">
<stop offset="0.1023" stop-color="#915758"/>
<stop offset="0.8855" stop-color="#2C090B"/>
</linearGradient>
<linearGradient id="paint8_linear_56_2907" x1="0.711394" y1="39.2336" x2="19.6195" y2="39.2336" gradientUnits="userSpaceOnUse">
<stop offset="0.0048" stop-color="#DA29F3"/>
<stop offset="0.9986" stop-color="#F731C0"/>
</linearGradient>
<linearGradient id="paint9_linear_56_2907" x1="7.57756" y1="46.7652" x2="17.8676" y2="35.5427" gradientUnits="userSpaceOnUse">
<stop offset="0.0048" stop-color="#C024D6"/>
<stop offset="0.9986" stop-color="#DA2BA9"/>
</linearGradient>
<clipPath id="clip0_56_2907">
<rect width="24" height="24" rx="12" fill="white"/>
</clipPath>
</defs>
</svg>
