<svg width="24" height="24" viewBox="0 0 24 24" fill="none" xmlns="http://www.w3.org/2000/svg">
<g clip-path="url(#clip0_56_2906)">
<rect width="24" height="24" fill="url(#paint0_radial_56_2906)"/>
<mask id="mask0_56_2906" style="mask-type:luminance" maskUnits="userSpaceOnUse" x="0" y="0" width="24" height="25">
<rect x="7.62939e-06" y="0.000244141" width="24" height="24" fill="white"/>
</mask>
<g mask="url(#mask0_56_2906)">
<path d="M32.7027 16.7727C32.7027 16.7727 35.8191 17.7111 38.9201 22.0299L29.7251 33.6017C28.4046 35.1641 26.1728 35.5932 24.3671 34.6318L15.2542 29.8031L19.3049 18.9641L26.8911 24.7144L32.7027 16.7727Z" fill="url(#paint1_linear_56_2906)"/>
<mask id="mask1_56_2906" style="mask-type:luminance" maskUnits="userSpaceOnUse" x="15" y="16" width="24" height="20">
<path fill-rule="evenodd" clip-rule="evenodd" d="M32.7027 16.7729C32.7027 16.7729 35.8191 17.7113 38.9201 22.0302L29.7251 33.6019C28.4047 35.1644 26.1728 35.5935 24.3671 34.632L15.2542 29.8034L19.3049 18.9643L26.8911 24.7147L32.7027 16.7729Z" fill="white"/>
</mask>
<g mask="url(#mask1_56_2906)">
<path d="M19.6212 20.9099C23.5913 29.7902 17.5207 29.8384 22.3101 33.5424C27.0996 37.2464 23.0373 38.6705 22.391 38.9219C21.7448 39.1732 10.7579 31.382 11.1272 31.2982C11.4966 31.2144 17.5663 24.1382 17.5663 24.1382" fill="url(#paint2_linear_56_2906)"/>
<path d="M20.4202 24.6733C23.4118 22.0775 22.2186 35.3972 28.9109 35.1367C35.6032 34.8763 20.5398 40.2924 20.5398 40.2924L15.6314 27.0058" fill="url(#paint3_linear_56_2906)"/>
</g>
<path d="M4.65937 41.2021C10.3726 43.1141 19.722 38.6724 19.722 38.6724C19.722 38.6724 14.6981 33.2599 18.4313 28.7837C22.1645 24.3075 18.7043 18.8117 18.7043 18.8117C18.7043 18.8117 13.7085 14.5996 4.96628 18.2841C4.65648 18.4172 4.4571 18.7236 4.46081 19.0608L4.65937 41.2021Z" fill="url(#paint4_linear_56_2906)"/>
<path d="M14.6332 17.0549C16.0296 18.273 16.123 20.6849 16.123 20.6849C16.123 20.6849 16.9222 37.5692 17.3453 44.6371C17.7684 51.7049 22.656 73.7482 22.656 73.7482C22.656 73.7482 24.2998 75.2745 28.5172 72.2279C28.7003 71.2124 22.3725 21.9516 19.3046 18.964C18.8552 17.9743 14.6332 17.0549 14.6332 17.0549Z" fill="url(#paint5_linear_56_2906)"/>
<path d="M-4.13261 66.905C2.11253 73.8444 16.8715 75.3048 16.8715 75.3048C16.8715 75.3048 22.3101 33.5422 14.4045 21.3539C14.4045 21.3539 9.88138 17.1514 8.14493 17.2306C5.39181 17.3562 4.13298 18.7632 4.13298 18.7632C0.184396 38.1758 10.7347 41.4543 -4.13261 66.905Z" fill="url(#paint6_linear_56_2906)"/>
<path d="M14.0731 16.3679C14.0731 16.3679 14.7407 18.7631 15.356 21.4138C15.356 21.4138 17.0063 31.1494 17.6411 33.7314L18.862 24.7209L16.7529 21.1222L17.9377 20.0053L15.7613 17.2307C15.2999 16.7774 14.7107 16.4763 14.0731 16.3679V16.3679Z" fill="white"/>
<path d="M15.5201 11.1833L16.0233 12.3133C16.0233 12.3133 13.6781 14.7528 14.327 20.0049L8.54075 17.2303L10.3096 11.1831L15.5201 11.1833Z" fill="url(#paint7_linear_56_2906)"/>
<mask id="mask2_56_2906" style="mask-type:luminance" maskUnits="userSpaceOnUse" x="8" y="11" width="9" height="10">
<path fill-rule="evenodd" clip-rule="evenodd" d="M15.5201 11.1835L16.0233 12.3136C16.0233 12.3136 13.6781 14.753 14.327 20.0052L8.54075 17.2306L10.3096 11.1833L15.5201 11.1835Z" fill="white"/>
</mask>
<g mask="url(#mask2_56_2906)">
<path opacity="0.34" d="M12.282 13.5714C14.7982 14.384 14.653 15.9118 15.6103 16.7729C16.5675 17.6339 16.9292 13.2068 16.9292 13.2068L15.5925 11.6545L11.2807 12.4737L10.8495 13.5085" fill="url(#paint8_linear_56_2906)"/>
</g>
<path d="M13.3396 4.16553C15.8112 5.94931 17.2364 8.84334 17.1436 11.89C17.1473 13.8363 9.75641 13.0743 9.75641 13.0743L9.53567 6.94508L10.1746 4.96451L13.3396 4.16553Z" fill="url(#paint9_linear_56_2906)"/>
<path d="M9.61382 11.3055L9.62906 11.133L12.8092 12.3595C13.5532 11.5787 13.6903 10.3996 13.1452 9.46901L9.22721 9.07798L9.19594 8.90763L13.053 9.28838C12.9728 9.13822 12.882 8.99396 12.7813 8.85669C12.7813 8.85669 14.1651 9.46363 16.3188 7.77759C19.8069 12.3026 15.4518 13.9228 15.4518 13.9228L12.4472 12.6739C12.5292 12.6131 12.5952 12.5495 12.6658 12.4866L9.61382 11.3055Z" fill="white"/>
<path d="M2.82948 14.1339C2.82948 14.1339 9.28012 16.7844 12.5385 15.7621C12.1552 9.437 13.8802 8.60645 12.9219 6.78558C12.9219 6.78558 15.8317 6.27449 16.0233 4.96471C16.0233 4.96471 15.1329 0.409139 10.4503 3.34875C2.27235 3.82791 5.67258 10.2365 2.82948 14.1339Z" fill="url(#paint10_linear_56_2906)"/>
<path d="M8.6852 16.1855C8.6852 16.1855 7.8107 16.8061 7.86714 17.2293L10.7231 22.8026L13.3251 21.522L12.9011 25.5671C12.9011 25.5671 16.5973 30.9888 17.6411 33.1609C17.372 27.2835 15.0231 21.7469 14.6332 21.375C13.3365 20.1386 11.6465 17.4043 8.6852 16.1855Z" fill="white"/>
<path d="M-8.36753 46.9014C-8.36753 46.9014 -2.13901 50.2508 -0.51061 50.149L2.28204 36.9472L8.32742 26.6795L4.13322 18.7632L-4.29261 32.1218C-4.83395 32.9446 -5.22859 33.8551 -5.45901 34.8127L-8.36753 46.9014Z" fill="url(#paint11_linear_56_2906)"/>
</g>
</g>
<defs>
<radialGradient id="paint0_radial_56_2906" cx="0" cy="0" r="1" gradientUnits="userSpaceOnUse" gradientTransform="translate(12 12) scale(12)">
<stop offset="0.0326" stop-color="#B07BFF"/>
<stop offset="0.9986" stop-color="#8638FF"/>
</radialGradient>
<linearGradient id="paint1_linear_56_2906" x1="62.2371" y1="38.5377" x2="46.8798" y2="8.63015" gradientUnits="userSpaceOnUse">
<stop offset="0.1023" stop-color="white"/>
<stop offset="0.8855" stop-color="#E3EBFD"/>
</linearGradient>
<linearGradient id="paint2_linear_56_2906" x1="33.0476" y1="23.5233" x2="21.0568" y2="22.6" gradientUnits="userSpaceOnUse">
<stop offset="0.1011" stop-color="#FFDBB6"/>
<stop offset="0.8855" stop-color="#FF6A21"/>
</linearGradient>
<linearGradient id="paint3_linear_56_2906" x1="49.94" y1="42.295" x2="28.1974" y2="19.767" gradientUnits="userSpaceOnUse">
<stop offset="0.1023" stop-color="white"/>
<stop offset="0.8855" stop-color="#CDDEFD"/>
</linearGradient>
<linearGradient id="paint4_linear_56_2906" x1="24.2646" y1="-12.8325" x2="-6.9581" y2="-0.0026625" gradientUnits="userSpaceOnUse">
<stop offset="0.1011" stop-color="#FFDBB6"/>
<stop offset="0.8855" stop-color="#FF6A21"/>
</linearGradient>
<linearGradient id="paint5_linear_56_2906" x1="40.5092" y1="32.8947" x2="15.0425" y2="29.8271" gradientUnits="userSpaceOnUse">
<stop offset="0.1023" stop-color="white"/>
<stop offset="0.8855" stop-color="#E3EBFD"/>
</linearGradient>
<linearGradient id="paint6_linear_56_2906" x1="-19.4449" y1="95.1145" x2="13.7651" y2="94.0528" gradientUnits="userSpaceOnUse">
<stop offset="0.1023" stop-color="white"/>
<stop offset="0.8855" stop-color="#E3EBFD"/>
</linearGradient>
<linearGradient id="paint7_linear_56_2906" x1="19.9528" y1="8.52689" x2="14.3089" y2="10.3346" gradientUnits="userSpaceOnUse">
<stop offset="0.1023" stop-color="#FCADBA"/>
<stop offset="0.8855" stop-color="#FBDAD9"/>
</linearGradient>
<linearGradient id="paint8_linear_56_2906" x1="18.8146" y1="10.4459" x2="15.5573" y2="12.4059" gradientUnits="userSpaceOnUse">
<stop offset="0.1011" stop-color="#FF7638"/>
<stop offset="0.8855" stop-color="#FF3929"/>
</linearGradient>
<linearGradient id="paint9_linear_56_2906" x1="18.9375" y1="1.45723" x2="11.4646" y2="3.80807" gradientUnits="userSpaceOnUse">
<stop offset="0.1023" stop-color="#FCADBA"/>
<stop offset="0.8855" stop-color="#FBDAD9"/>
</linearGradient>
<linearGradient id="paint10_linear_56_2906" x1="2.82948" y1="15.9967" x2="16.0233" y2="15.9967" gradientUnits="userSpaceOnUse">
<stop offset="0.1023" stop-color="#915758"/>
<stop offset="0.8855" stop-color="#2C090B"/>
</linearGradient>
<linearGradient id="paint11_linear_56_2906" x1="-22.2038" y1="72.1142" x2="12.4519" y2="70.0857" gradientUnits="userSpaceOnUse">
<stop offset="0.1023" stop-color="white"/>
<stop offset="0.8855" stop-color="#E3EBFD"/>
</linearGradient>
<clipPath id="clip0_56_2906">
<rect width="24" height="24" rx="12" fill="white"/>
</clipPath>
</defs>
</svg>
