<svg width="24" height="24" viewBox="0 0 24 24" fill="none" xmlns="http://www.w3.org/2000/svg">
<g clip-path="url(#clip0_56_2911)">
<rect width="24" height="24" fill="url(#paint0_radial_56_2911)"/>
<mask id="mask0_56_2911" style="mask-type:luminance" maskUnits="userSpaceOnUse" x="0" y="0" width="24" height="24">
<rect x="-3.62396e-05" width="24" height="24" fill="white"/>
</mask>
<g mask="url(#mask0_56_2911)">
<path d="M7.79899 25.3078C7.16485 27.3187 11.7521 33.3425 11.7521 33.3425C11.7521 33.3425 26.4804 22.5484 19.1873 16.9774C15.1696 13.9086 7.79899 25.3078 7.79899 25.3078Z" fill="url(#paint1_linear_56_2911)"/>
<path d="M8.61942 12.6943C4.70851 10.88 5.66074 16.3792 5.66074 16.3792L-0.0246429 35.3954H6.28328L8.52196 16.8525C8.52196 16.8525 10.6734 11.7254 8.61942 12.6943Z" fill="url(#paint2_linear_56_2911)"/>
<mask id="mask1_56_2911" style="mask-type:luminance" maskUnits="userSpaceOnUse" x="-1" y="12" width="11" height="24">
<path fill-rule="evenodd" clip-rule="evenodd" d="M8.61943 12.6943C4.70851 10.88 5.66074 16.3792 5.66074 16.3792L-0.0246391 35.3954H6.28328L8.52197 16.8525C8.52197 16.8525 10.6734 11.7254 8.61943 12.6943Z" fill="white"/>
</mask>
<g mask="url(#mask1_56_2911)">
<path opacity="0.34" d="M5.71097 14.2944C4.63766 15.0837 7.8489 16.4532 8.25004 17.6618C8.65118 18.8705 9.35479 15.5044 9.35479 15.5044L8.72406 14.7271" fill="url(#paint3_linear_56_2911)"/>
</g>
<ellipse cx="17.9843" cy="12.9048" rx="4.69877" ry="2.59934" fill="url(#paint4_linear_56_2911)"/>
<ellipse cx="11.3311" cy="9.60551" rx="5.62015" ry="3.96562" fill="url(#paint5_linear_56_2911)"/>
<path d="M8.94505 15.6111C12.0661 19.0099 12.7742 20.4025 12.7742 20.4025L17.9617 17.3874L12.3915 11.2961L8.27611 15.3717" fill="url(#paint6_linear_56_2911)"/>
<mask id="mask2_56_2911" style="mask-type:luminance" maskUnits="userSpaceOnUse" x="8" y="11" width="10" height="10">
<path fill-rule="evenodd" clip-rule="evenodd" d="M8.94505 15.6108C12.0661 19.0096 12.7742 20.4023 12.7742 20.4023L17.9617 17.3872L12.3915 11.2959L8.27611 15.3715" fill="white"/>
</mask>
<g mask="url(#mask2_56_2911)">
<path opacity="0.34" d="M10.9813 14.2973C14.0503 14.1878 9.73022 16.8168 9.91641 19.2106C10.1026 21.6043 6.98666 16.3959 6.98666 16.3959" fill="url(#paint7_linear_56_2911)"/>
</g>
<ellipse cx="6.81004" cy="8.74406" rx="3.25531" ry="2.09465" fill="url(#paint8_linear_56_2911)"/>
<path d="M12.0859 14.1709C7.85943 19.0758 1.95515 13.5711 6.68729 8.77232C11.4194 3.97351 12.0859 14.1709 12.0859 14.1709Z" fill="url(#paint9_linear_56_2911)"/>
<path d="M12.8213 12.7048C4.88771 13.5713 5.37237 7.0927 7.97171 6.42622C10.5711 5.75973 13.2856 11.4385 13.2856 11.4385" fill="url(#paint10_linear_56_2911)"/>
<path d="M10.0653 11.8947C15.1517 7.49582 15.7016 13.5443 11.7526 14.2941L10.0653 11.8947Z" fill="url(#paint11_linear_56_2911)"/>
<path d="M10.6543 23.955L3.86302 34.9428L-7.1936 34.9791C-7.1936 34.9791 -9.57883 35.3209 -9.74332 35.5346C-9.9078 35.7482 -12.7454 38.782 -13.0744 38.7393C-13.4033 38.6967 -12.7455 40.3203 -10.8948 38.3975L-10.1957 37.6284C-10.1957 37.6284 -9.41435 38.5257 -8.96197 38.5684C-8.5096 38.6112 -6.1273 37.6775 -6.1273 37.6775L5.0455 40.0674C6.70408 40.1816 8.29449 39.3888 9.20155 37.9955L19.7511 23.21L10.6543 23.955Z" fill="url(#paint12_linear_56_2911)"/>
<path d="M16.7577 15.8512L16.1885 15.4243L15.6186 13.8225L11.5965 18.1292L11.4189 21.8662L16.7577 15.8512Z" fill="url(#paint13_linear_56_2911)"/>
<path d="M17.1137 39.7215C22.3981 41.3588 33.4595 34.4307 33.4595 34.4307C30.6121 32.2224 28.2899 15.8492 16.1883 15.4241L11.7657 19.5965C10.0653 29.7179 20.4643 30.2763 17.1137 39.7215Z" fill="url(#paint14_linear_56_2911)"/>
<mask id="mask3_56_2911" style="mask-type:luminance" maskUnits="userSpaceOnUse" x="11" y="15" width="23" height="25">
<path fill-rule="evenodd" clip-rule="evenodd" d="M17.1137 39.7215C22.3981 41.3588 33.4595 34.4307 33.4595 34.4307C30.6121 32.2224 28.2899 15.8492 16.1883 15.4241L11.7657 19.5965C10.0653 29.7179 20.4643 30.2763 17.1137 39.7215Z" fill="white"/>
</mask>
<g mask="url(#mask3_56_2911)">
<path d="M17.0502 21.0612C23.5633 19.2511 16.7767 31.5186 18.5127 36.0538C20.2487 40.589 30.8859 35.624 28.0885 37.8455C25.2912 40.0669 14.8421 41.3011 14.8421 41.3011L12.7029 27.1496" fill="url(#paint15_linear_56_2911)"/>
</g>
<path d="M8.25004 27.1077C8.2217 29.2161 14.3491 33.6641 14.3491 33.6641C14.3491 33.6641 25.3459 19.0866 16.7577 15.8512C12.0267 14.0689 8.25004 27.1077 8.25004 27.1077Z" fill="url(#paint16_linear_56_2911)"/>
</g>
</g>
<defs>
<radialGradient id="paint0_radial_56_2911" cx="0" cy="0" r="1" gradientUnits="userSpaceOnUse" gradientTransform="translate(12 12) scale(12)">
<stop offset="0.0326" stop-color="#B07BFF"/>
<stop offset="0.9986" stop-color="#8638FF"/>
</radialGradient>
<linearGradient id="paint1_linear_56_2911" x1="16.2685" y1="36.8276" x2="16.3532" y2="37.2049" gradientUnits="userSpaceOnUse">
<stop offset="0.0035" stop-color="#4AAAFD"/>
<stop offset="1" stop-color="#00DED8"/>
</linearGradient>
<linearGradient id="paint2_linear_56_2911" x1="13.3473" y1="3.91723" x2="-5.06837" y2="3.10844" gradientUnits="userSpaceOnUse">
<stop offset="0.1023" stop-color="#FCADBA"/>
<stop offset="0.8855" stop-color="#FBDAD9"/>
</linearGradient>
<linearGradient id="paint3_linear_56_2911" x1="11.9687" y1="12.2306" x2="2.22379" y2="9.35746" gradientUnits="userSpaceOnUse">
<stop offset="0.1011" stop-color="#FF7638"/>
<stop offset="0.8855" stop-color="#FF3929"/>
</linearGradient>
<linearGradient id="paint4_linear_56_2911" x1="22.6831" y1="10.3054" x2="13.2856" y2="10.3054" gradientUnits="userSpaceOnUse">
<stop stop-color="#3A4292"/>
<stop offset="1" stop-color="#090A4A"/>
</linearGradient>
<linearGradient id="paint5_linear_56_2911" x1="425.556" y1="0.924569" x2="423.733" y2="9.23995" gradientUnits="userSpaceOnUse">
<stop stop-color="#3A4292"/>
<stop offset="1" stop-color="#090A4A"/>
</linearGradient>
<linearGradient id="paint6_linear_56_2911" x1="18.1234" y1="10.3053" x2="6.27562" y2="10.2432" gradientUnits="userSpaceOnUse">
<stop offset="0.1023" stop-color="#FCADBA"/>
<stop offset="0.8855" stop-color="#FBDAD9"/>
</linearGradient>
<linearGradient id="paint7_linear_56_2911" x1="12.5675" y1="14.4395" x2="7.14249" y2="11.2044" gradientUnits="userSpaceOnUse">
<stop offset="0.1011" stop-color="#FF7638"/>
<stop offset="0.8855" stop-color="#FF3929"/>
</linearGradient>
<linearGradient id="paint8_linear_56_2911" x1="428.481" y1="2.56079" x2="426.966" y2="10.8705" gradientUnits="userSpaceOnUse">
<stop stop-color="#3A4292"/>
<stop offset="1" stop-color="#090A4A"/>
</linearGradient>
<linearGradient id="paint9_linear_56_2911" x1="18.1357" y1="4.70612" x2="6.28785" y2="4.66822" gradientUnits="userSpaceOnUse">
<stop offset="0.1023" stop-color="#FCADBA"/>
<stop offset="0.8855" stop-color="#FBDAD9"/>
</linearGradient>
<linearGradient id="paint10_linear_56_2911" x1="428.509" y1="1.29496" x2="425.517" y2="9.42954" gradientUnits="userSpaceOnUse">
<stop stop-color="#3A4292"/>
<stop offset="1" stop-color="#090A4A"/>
</linearGradient>
<linearGradient id="paint11_linear_56_2911" x1="18.1401" y1="6.81037" x2="6.29236" y2="6.74706" gradientUnits="userSpaceOnUse">
<stop offset="0.1023" stop-color="#FCADBA"/>
<stop offset="0.8855" stop-color="#FBDAD9"/>
</linearGradient>
<linearGradient id="paint12_linear_56_2911" x1="-13.1557" y1="40.0767" x2="19.7511" y2="40.0767" gradientUnits="userSpaceOnUse">
<stop offset="0.1023" stop-color="#FCADBA"/>
<stop offset="0.8855" stop-color="#FBDAD9"/>
</linearGradient>
<linearGradient id="paint13_linear_56_2911" x1="8.17317" y1="15.4128" x2="14.5177" y2="21.139" gradientUnits="userSpaceOnUse">
<stop offset="0.1011" stop-color="#FFC0A0"/>
<stop offset="0.8855" stop-color="#FF3513"/>
</linearGradient>
<linearGradient id="paint14_linear_56_2911" x1="12.2276" y1="6.21323" x2="7.7848" y2="34.6049" gradientUnits="userSpaceOnUse">
<stop offset="0.0035" stop-color="#4AAAFD"/>
<stop offset="1" stop-color="#00DED8"/>
</linearGradient>
<linearGradient id="paint15_linear_56_2911" x1="14.3593" y1="27.5004" x2="4.20194" y2="41.6632" gradientUnits="userSpaceOnUse">
<stop offset="0.0035" stop-color="#4AAAFD"/>
<stop offset="1" stop-color="#00DED8"/>
</linearGradient>
<linearGradient id="paint16_linear_56_2911" x1="6.49372" y1="3.7989" x2="-1.80081" y2="32.463" gradientUnits="userSpaceOnUse">
<stop offset="0.0035" stop-color="#4AAAFD"/>
<stop offset="1" stop-color="#00DED8"/>
</linearGradient>
<clipPath id="clip0_56_2911">
<rect width="24" height="24" rx="12" fill="white"/>
</clipPath>
</defs>
</svg>
