<svg width="24" height="24" viewBox="0 0 24 24" fill="none" xmlns="http://www.w3.org/2000/svg">
<g clip-path="url(#clip0_56_2910)">
<rect width="24" height="24" fill="url(#paint0_radial_56_2910)"/>
<mask id="mask0_56_2910" style="mask-type:luminance" maskUnits="userSpaceOnUse" x="0" y="0" width="24" height="24">
<rect x="7.62939e-06" width="24" height="24" fill="white"/>
</mask>
<g mask="url(#mask0_56_2910)">
<path d="M-3.46953 36.8525C-7.59061 38.0902 -6.21835 41.4313 -6.21835 41.4313C-6.21835 41.4313 -1.29506 47.5593 0.612859 44.8632C2.87845 42.2876 5.81896 30.4781 5.81896 30.4781C5.81896 30.4781 5.75133 21.4711 3.29483 22.3564C-0.692194 23.7934 -2.52962 37.5026 -2.52962 37.5026L-3.46953 36.8525Z" fill="url(#paint1_linear_56_2910)"/>
<path d="M5.11426 51.1269C13.5754 54.8358 29.1287 52.4682 26.2312 48.6433C23.3336 44.8184 25.929 23.6757 25.4654 22.2951C25.0017 20.9145 15.3419 15.1508 3.29495 22.3563C-0.123286 34.0896 7.08467 42.3182 5.11426 51.1269Z" fill="url(#paint2_linear_56_2910)"/>
<mask id="mask1_56_2910" style="mask-type:luminance" maskUnits="userSpaceOnUse" x="2" y="18" width="25" height="35">
<path fill-rule="evenodd" clip-rule="evenodd" d="M5.11426 51.1266C13.5754 54.8356 29.1287 52.4679 26.2312 48.6431C23.3336 44.8182 25.929 23.6755 25.4654 22.2948C25.0017 20.9142 15.3419 15.1506 3.29495 22.3561C-0.123286 34.0894 7.08467 42.3179 5.11426 51.1266Z" fill="white"/>
</mask>
<g mask="url(#mask1_56_2910)">
<path d="M19.4677 19.3606C19.4677 22.8399 16.1392 25.6266 13.032 25.6266C9.9249 25.6266 8.21555 22.8397 8.21555 19.3606C8.21555 15.8814 10.7344 13.0608 13.8419 13.0608C16.9493 13.0608 19.4677 15.8813 19.4677 19.3606Z" fill="white"/>
<ellipse cx="13.4093" cy="18.0485" rx="6.31031" ry="4.80395" transform="rotate(-82.003 13.4093 18.0485)" fill="url(#paint3_linear_56_2910)"/>
</g>
<path d="M20.1414 26.8501C20.1414 26.8501 22.3205 20.7151 24.2539 21.3065C26.9591 22.1341 34.71 35.7853 34.71 35.7853L28.1073 43.5431L20.1414 26.8501Z" fill="url(#paint4_linear_56_2910)"/>
<ellipse cx="16.1309" cy="10.0816" rx="1.96604" ry="1.72436" transform="rotate(-47.5292 16.1309 10.0816)" fill="url(#paint5_linear_56_2910)"/>
<path d="M16.4636 21.2448L10.2453 21.8319L9.99719 13.4971H16.2328L16.4636 21.2448Z" fill="url(#paint6_linear_56_2910)"/>
<mask id="mask2_56_2910" style="mask-type:luminance" maskUnits="userSpaceOnUse" x="9" y="13" width="8" height="9">
<path fill-rule="evenodd" clip-rule="evenodd" d="M16.4636 21.2448L10.2453 21.8319L9.99719 13.4971H16.2328L16.4636 21.2448Z" fill="white"/>
</mask>
<g mask="url(#mask2_56_2910)">
<path opacity="0.34" d="M6.99564 20.2714C14.7698 17.9703 15.4842 14.6626 15.4842 14.6626L10.1532 13.8955L9.5765 17.0116L7.55665 19.84" fill="url(#paint7_linear_56_2910)"/>
</g>
<path d="M12.4265 16.5466C10.0002 16.5288 8.01953 14.6009 7.93626 12.1759L7.79994 7.60195C7.75667 6.45456 8.18369 5.33923 8.98218 4.51411C9.78067 3.689 10.8814 3.22563 12.0296 3.23125C14.4559 3.24905 16.4366 5.17698 16.5199 7.60195L16.6561 12.1759C16.6994 13.3233 16.2724 14.4387 15.4739 15.2638C14.6755 16.0889 13.5747 16.5523 12.4265 16.5466Z" fill="url(#paint8_linear_56_2910)"/>
<mask id="mask3_56_2910" style="mask-type:luminance" maskUnits="userSpaceOnUse" x="7" y="3" width="10" height="14">
<path fill-rule="evenodd" clip-rule="evenodd" d="M12.4266 16.5466C10.0002 16.5288 8.01954 14.6009 7.93627 12.1759L7.79995 7.60195C7.75668 6.45456 8.1837 5.33923 8.98219 4.51411C9.78068 3.689 10.8814 3.22563 12.0296 3.23125C14.4559 3.24905 16.4366 5.17698 16.5199 7.60195L16.6561 12.1759C16.6994 13.3233 16.2724 14.4387 15.4739 15.2638C14.6755 16.0889 13.5747 16.5523 12.4266 16.5466Z" fill="white"/>
</mask>
<g mask="url(#mask3_56_2910)">
<path d="M6.24825 8.26289C6.41435 7.88178 7.19725 7.91419 7.33752 7.60226C8.32616 5.40447 9.25788 5.2419 10.7175 6.19197C12.4474 7.31801 14.2877 4.14647 15.4038 5.87437C16.5199 7.60226 16.9309 14.5901 13.2361 11.3884C9.54123 8.18671 6.78751 15.3016 6.78751 15.3016L10.6961 18.0204L16.8349 18.1729L18.326 8.66946L16.3541 2.03741L9.50804 1.96118L7.32443 5.23909" fill="url(#paint9_linear_56_2910)"/>
</g>
</g>
</g>
<defs>
<radialGradient id="paint0_radial_56_2910" cx="0" cy="0" r="1" gradientUnits="userSpaceOnUse" gradientTransform="translate(12 12) scale(12)">
<stop offset="0.0035" stop-color="#4AAAFD"/>
<stop offset="1" stop-color="#00DED8"/>
</radialGradient>
<linearGradient id="paint1_linear_56_2910" x1="-9.09082" y1="12.1623" x2="-17.2135" y2="49.0586" gradientUnits="userSpaceOnUse">
<stop offset="0.0326" stop-color="#B07BFF"/>
<stop offset="0.9986" stop-color="#8638FF"/>
</linearGradient>
<linearGradient id="paint2_linear_56_2910" x1="2.80773" y1="13.6566" x2="-1.6644" y2="50.3856" gradientUnits="userSpaceOnUse">
<stop offset="0.0326" stop-color="#B07BFF"/>
<stop offset="0.9986" stop-color="#8638FF"/>
</linearGradient>
<linearGradient id="paint3_linear_56_2910" x1="7.50696" y1="7.35217" x2="5.13638" y2="20.8549" gradientUnits="userSpaceOnUse">
<stop offset="0.1023" stop-color="#FCADBA"/>
<stop offset="0.8855" stop-color="#FBDAD9"/>
</linearGradient>
<linearGradient id="paint4_linear_56_2910" x1="15.6398" y1="12.64" x2="10.0991" y2="51.3849" gradientUnits="userSpaceOnUse">
<stop offset="0.0326" stop-color="#B07BFF"/>
<stop offset="0.9986" stop-color="#8638FF"/>
</linearGradient>
<linearGradient id="paint5_linear_56_2910" x1="3.42501" y1="-2.62739" x2="4.51695" y2="18.0628" gradientUnits="userSpaceOnUse">
<stop offset="0.1023" stop-color="#FCADBA"/>
<stop offset="0.8855" stop-color="#FBDAD9"/>
</linearGradient>
<linearGradient id="paint6_linear_56_2910" x1="1.59181" y1="22.7261" x2="16.4453" y2="26.7232" gradientUnits="userSpaceOnUse">
<stop offset="0.1023" stop-color="#FCADBA"/>
<stop offset="0.8855" stop-color="#FBDAD9"/>
</linearGradient>
<linearGradient id="paint7_linear_56_2910" x1="6.90306" y1="20.3382" x2="15.5588" y2="20.3382" gradientUnits="userSpaceOnUse">
<stop offset="0.1011" stop-color="#FF7638"/>
<stop offset="0.8855" stop-color="#FF3929"/>
</linearGradient>
<linearGradient id="paint8_linear_56_2910" x1="-0.0165567" y1="15.7351" x2="18.4484" y2="22.2516" gradientUnits="userSpaceOnUse">
<stop offset="0.1023" stop-color="#FCADBA"/>
<stop offset="0.8855" stop-color="#FBDAD9"/>
</linearGradient>
<linearGradient id="paint9_linear_56_2910" x1="6.30424" y1="18.1684" x2="18.37" y2="18.1684" gradientUnits="userSpaceOnUse">
<stop offset="0.1023" stop-color="#915758"/>
<stop offset="0.8855" stop-color="#2C090B"/>
</linearGradient>
<clipPath id="clip0_56_2910">
<rect width="24" height="24" rx="12" fill="white"/>
</clipPath>
</defs>
</svg>
